<?xml version="1.0" encoding="UTF-8" standalone="no"?>
<!-- Created with Inkscape (http://www.inkscape.org/) -->

<svg
   width="48"
   height="48"
   viewBox="0 0 12.7 12.7"
   version="1.1"
   id="svg5"
   xml:space="preserve"
   inkscape:export-filename="HPLogo48x48.png"
   inkscape:export-xdpi="96"
   inkscape:export-ydpi="96"
   sodipodi:docname="HPLogo48x48.svg"
   xmlns:inkscape="http://www.inkscape.org/namespaces/inkscape"
   xmlns:sodipodi="http://sodipodi.sourceforge.net/DTD/sodipodi-0.dtd"
   xmlns="http://www.w3.org/2000/svg"
   xmlns:svg="http://www.w3.org/2000/svg"><sodipodi:namedview
     id="namedview7"
     pagecolor="#ffffff"
     bordercolor="#000000"
     borderopacity="0.25"
     inkscape:showpageshadow="2"
     inkscape:pageopacity="0.0"
     inkscape:pagecheckerboard="0"
     inkscape:deskcolor="#d1d1d1"
     inkscape:document-units="mm"
     showgrid="false" /><defs
     id="defs2" /><g
     inkscape:label="Camada 1"
     inkscape:groupmode="layer"
     id="layer1"><g
       id="g104"
       transform="matrix(0.26458333,0,0,0.26458333,2.0231284,-0.573113)"><g
         id="g50">
	<path
   d="M 22.084,13.754 V 8.079 L 20.802,7.832 V 4.712 L 16.235,3.608 V 3.602 L 16.219,3.605 16.204,3.602 v 0.007 l -4.79,1.148 V 7.898 L 10.112,8.146 V 13.92 L 0,14.929 v 11.555 l 16.232,1.915 0.959,-0.113 v -5.477 l 4.318,-0.164 v 5.127 L 32,26.545 V 14.773 Z m -20.957,1.93 3.223,-0.27 v 0.815 l -3.223,0.225 z m 3.223,7.57 -3.223,-0.17 v -0.771 l 3.223,0.124 z m 0,-1.664 -3.223,-0.076 V 20.743 L 4.35,20.774 Z M 4.358,19.766 1.134,19.791 V 19.02 l 3.224,-0.07 z m 0,-1.665 -3.224,0.119 V 17.449 L 4.358,17.283 Z M 5.257,15.35 9.006,15.037 v 0.883 l -3.749,0.26 z m 3.749,8.164 -3.749,-0.199 v -0.828 l 3.749,0.146 z m 0,-1.801 -3.749,-0.09 v -0.828 l 3.749,0.037 z M 9.017,19.742 5.266,19.77 v -0.828 l 3.751,-0.083 z m 0,-1.801 -3.751,0.139 v -0.83 l 3.751,-0.19 z m 1.761,-8.704 4.52,-0.777 v 0.971 l -4.52,0.713 z m 0,1.851 4.52,-0.646 v 0.972 l -4.52,0.582 z m -0.01,1.882 4.519,-0.514 v 0.972 l -4.519,0.449 z m 0,1.85 4.519,-0.383 v 0.972 l -4.519,0.318 z m 4.518,8.952 -4.519,-0.233 v -0.907 l 4.519,0.17 z m 0,-1.981 -4.519,-0.104 V 20.78 l 4.519,0.039 z m 0.013,-2.172 -4.521,0.039 v -0.906 l 4.521,-0.104 z m 0,-1.982 -4.521,0.171 V 16.9 l 4.521,-0.233 z m 1.867,-9.129 4.322,0.746 v 0.933 L 17.166,9.504 Z m -0.025,4.049 4.324,0.488 v 0.933 l -4.324,-0.425 z m 0.011,1.969 4.324,0.362 v 0.934 l -4.324,-0.3 z m 0.019,4.2 4.322,0.096 v 0.933 l -4.322,-0.03 z m 4.328,3.009 -4.319,0.103 v -0.996 l 4.319,-0.039 z m 0,-3.86 -4.319,-0.159 v -0.995 l 4.319,0.223 z m 0,-5.844 -4.319,-0.557 v -0.996 l 4.319,0.62 z m 1.626,2.974 3.617,0.305 v 0.855 l -3.617,-0.252 z m 3.637,2.189 v 0.855 l -3.613,-0.136 v -0.907 z m -3.621,1.642 3.616,0.08 v 0.855 l -3.616,-0.027 z m 0.005,1.93 3.615,-0.031 v 0.855 l -3.615,0.084 z m 3.625,2.512 -3.614,0.19 V 22.56 l 3.614,-0.138 z m 1.027,-7.882 3.106,0.262 v 0.795 l -3.106,-0.216 z m 3.123,2.012 v 0.793 l -3.104,-0.115 v -0.84 z m -3.109,1.53 3.104,0.069 v 0.794 l -3.104,-0.023 z m 0.004,1.783 3.104,-0.026 v 0.794 l -3.104,0.073 z m 3.114,2.336 -3.104,0.163 v -0.841 l 3.104,-0.116 z"
   id="path48" />
</g><g
         id="g52">
</g><g
         id="g54">
</g><g
         id="g56">
</g><g
         id="g58">
</g><g
         id="g60">
</g><g
         id="g62">
</g><g
         id="g64">
</g><g
         id="g66">
</g><g
         id="g68">
</g><g
         id="g70">
</g><g
         id="g72">
</g><g
         id="g74">
</g><g
         id="g76">
</g><g
         id="g78">
</g><g
         id="g80">
</g></g><text
       xml:space="preserve"
       style="font-style:normal;font-variant:normal;font-weight:normal;font-stretch:normal;font-size:1.05833px;font-family:Georgia;-inkscape-font-specification:'Georgia, Normal';font-variant-ligatures:normal;font-variant-caps:normal;font-variant-numeric:normal;font-variant-east-asian:normal;fill:#000000;stroke-width:0.264583"
       x="2.6606085"
       y="11.497053"
       id="text548"><tspan
         sodipodi:role="line"
         id="tspan546"
         style="font-style:normal;font-variant:normal;font-weight:normal;font-stretch:normal;font-size:1.05833px;font-family:Georgia;-inkscape-font-specification:'Georgia, Normal';font-variant-ligatures:normal;font-variant-caps:normal;font-variant-numeric:normal;font-variant-east-asian:normal;stroke-width:0.264583"
         x="2.6606085"
         y="11.497053">+Lazer  -Stress</tspan></text><text
       xml:space="preserve"
       style="font-style:normal;font-variant:normal;font-weight:normal;font-stretch:normal;font-size:2.46944px;font-family:Georgia;-inkscape-font-specification:'Georgia, Normal';font-variant-ligatures:normal;font-variant-caps:normal;font-variant-numeric:normal;font-variant-east-asian:normal;fill:#000000;stroke-width:0.264583"
       x="0.66112077"
       y="10.078063"
       id="text318"><tspan
         sodipodi:role="line"
         id="tspan316"
         style="font-style:normal;font-variant:normal;font-weight:normal;font-stretch:normal;font-size:2.46944px;font-family:Georgia;-inkscape-font-specification:'Georgia, Normal';font-variant-ligatures:normal;font-variant-caps:normal;font-variant-numeric:normal;font-variant-east-asian:normal;stroke-width:0.264583"
         x="0.66112077"
         y="10.078063">Hotel Plus</tspan></text><rect
       style="fill:#000000;stroke-width:0.264583"
       id="rect496"
       width="12.222675"
       height="0.24187352"
       x="0.24187352"
       y="7.2078309" /><rect
       style="fill:#000000;stroke-width:0.264583"
       id="rect496-4"
       width="12.222675"
       height="0.24187352"
       x="0.24187352"
       y="7.6190157" /></g></svg>
